<svg xmlns="http://www.w3.org/2000/svg" xmlns:xlink="http://www.w3.org/1999/xlink" contentStyleType="text/css" data-diagram-type="CLASS" height="361px" preserveAspectRatio="none" style="width:779px;height:361px;background:#FFFFFF;" version="1.1" viewBox="0 0 779 361" width="779px" zoomAndPan="magnify"><defs/><g><!--cluster Phpolar--><g id="cluster_Phpolar"><path d="M188.5,52 L250.5176,52 A3.75,3.75 0 0 1 253.0176,54.5 L260.0176,74.2969 L769.5,74.2969 A2.5,2.5 0 0 1 772,76.7969 L772,351.5 A2.5,2.5 0 0 1 769.5,354 L188.5,354 A2.5,2.5 0 0 1 186,351.5 L186,54.5 A2.5,2.5 0 0 1 188.5,52 " fill="transparent" style="stroke:#000000;stroke-width:1.5;"/><line style="stroke:#000000;stroke-width:1.5;" x1="186" x2="260.0176" y1="74.2969" y2="74.2969"/><text fill="#000000" font-family="sans-serif" font-size="14" font-weight="bold" lengthAdjust="spacing" textLength="61.0176" x="190" y="66.9951">Phpolar</text></g><!--cluster Storage--><g id="cluster_Storage"><path d="M196.5,79 L259.7617,79 A3.75,3.75 0 0 1 262.2617,81.5 L269.2617,101.2969 L761.5,101.2969 A2.5,2.5 0 0 1 764,103.7969 L764,343.5 A2.5,2.5 0 0 1 761.5,346 L196.5,346 A2.5,2.5 0 0 1 194,343.5 L194,81.5 A2.5,2.5 0 0 1 196.5,79 " fill="transparent" style="stroke:#000000;stroke-width:1.5;"/><line style="stroke:#000000;stroke-width:1.5;" x1="194" x2="269.2617" y1="101.2969" y2="101.2969"/><text fill="#000000" font-family="sans-serif" font-size="14" font-weight="bold" lengthAdjust="spacing" textLength="62.2617" x="198" y="93.9951">Storage</text></g><!--class Countable__class--><g id="elem_Countable__class"><rect codeLine="18" fill="#F1F1F1" height="40.2656" id="Countable__class" rx="2.5" ry="2.5" style="stroke:#181818;stroke-width:0.5;" width="103.5449" x="263.5" y="4"/><ellipse cx="278.5" cy="24.1328" fill="#B4A7E5" rx="11" ry="11" style="stroke:#181818;stroke-width:1;"/><path d="M274.4219,19.8984 L274.4219,17.7422 L281.8125,17.7422 L281.8125,19.8984 L279.3438,19.8984 L279.3438,27.9766 L281.8125,27.9766 L281.8125,30.1328 L274.4219,30.1328 L274.4219,27.9766 L276.8906,27.9766 L276.8906,19.8984 L274.4219,19.8984 Z " fill="#000000"/><text fill="#000000" font-family="sans-serif" font-size="12" font-style="italic" lengthAdjust="spacing" textLength="64.4824" x="296.0313" y="20.1387">&#171;external&#187;</text><text fill="#000000" font-family="sans-serif" font-size="14" font-style="italic" lengthAdjust="spacing" textLength="71.5449" x="292.5" y="35.9639">Countable</text></g><!--class RuntimeException__class--><g id="elem_RuntimeException__class"><rect codeLine="24" fill="#F1F1F1" height="40.2656" id="RuntimeException__class" rx="2.5" ry="2.5" style="stroke:#181818;stroke-width:0.5;" width="160.249" x="6" y="152"/><ellipse cx="21" cy="172.1328" fill="#ADD1B2" rx="11" ry="11" style="stroke:#181818;stroke-width:1;"/><path d="M23.9688,177.7734 Q23.3906,178.0703 22.75,178.2109 Q22.1094,178.3672 21.4063,178.3672 Q18.9063,178.3672 17.5781,176.7266 Q16.2656,175.0703 16.2656,171.9453 Q16.2656,168.8203 17.5781,167.1641 Q18.9063,165.5078 21.4063,165.5078 Q22.1094,165.5078 22.75,165.6641 Q23.4063,165.8203 23.9688,166.1172 L23.9688,168.8359 Q23.3438,168.2578 22.75,167.9922 Q22.1563,167.7109 21.5313,167.7109 Q20.1875,167.7109 19.5,168.7891 Q18.8125,169.8516 18.8125,171.9453 Q18.8125,174.0391 19.5,175.1172 Q20.1875,176.1797 21.5313,176.1797 Q22.1563,176.1797 22.75,175.9141 Q23.3438,175.6328 23.9688,175.0547 L23.9688,177.7734 Z " fill="#000000"/><text fill="#000000" font-family="sans-serif" font-size="12" font-style="italic" lengthAdjust="spacing" textLength="64.4824" x="66.8833" y="168.1387">&#171;external&#187;</text><text fill="#000000" font-family="sans-serif" font-size="14" lengthAdjust="spacing" textLength="128.249" x="35" y="183.9639">RuntimeException</text></g><!--class StorageContext__interface--><g id="elem_StorageContext__interface"><rect codeLine="15" fill="#F1F1F1" height="32" id="StorageContext__interface" rx="2.5" ry="2.5" style="stroke:#181818;stroke-width:0.5;" width="141.8672" x="244.5" y="106"/><ellipse cx="259.5" cy="122" fill="#B4A7E5" rx="11" ry="11" style="stroke:#181818;stroke-width:1;"/><path d="M255.4219,117.7656 L255.4219,115.6094 L262.8125,115.6094 L262.8125,117.7656 L260.3438,117.7656 L260.3438,125.8438 L262.8125,125.8438 L262.8125,128 L255.4219,128 L255.4219,125.8438 L257.8906,125.8438 L257.8906,117.7656 L255.4219,117.7656 Z " fill="#000000"/><text fill="#000000" font-family="sans-serif" font-size="14" font-style="italic" lengthAdjust="spacing" textLength="109.8672" x="273.5" y="126.8467">StorageContext</text></g><!--class AbstractStorage__class--><g id="elem_AbstractStorage__class"><rect codeLine="21" fill="#F1F1F1" height="32" id="AbstractStorage__class" rx="2.5" ry="2.5" style="stroke:#181818;stroke-width:0.5;" width="145.5449" x="465" y="106"/><ellipse cx="480" cy="122" fill="#A9DCDF" rx="11" ry="11" style="stroke:#181818;stroke-width:1;"/><path d="M480.1094,117.3438 L478.9531,122.4219 L481.2813,122.4219 L480.1094,117.3438 Z M478.625,115.1094 L481.6094,115.1094 L484.9688,127.5 L482.5156,127.5 L481.75,124.4375 L478.4688,124.4375 L477.7188,127.5 L475.2813,127.5 L478.625,115.1094 Z " fill="#000000"/><text fill="#000000" font-family="sans-serif" font-size="14" font-style="italic" lengthAdjust="spacing" textLength="113.5449" x="494" y="126.8467">AbstractStorage</text></g><!--class InvalidQueryStateException__class--><g id="elem_InvalidQueryStateException__class"><rect codeLine="27" fill="#F1F1F1" height="32" id="InvalidQueryStateException__class" rx="2.5" ry="2.5" style="stroke:#181818;stroke-width:0.5;" width="227.2822" x="202" y="156"/><ellipse cx="217" cy="172" fill="#ADD1B2" rx="11" ry="11" style="stroke:#181818;stroke-width:1;"/><path d="M219.9688,177.6406 Q219.3906,177.9375 218.75,178.0781 Q218.1094,178.2344 217.4063,178.2344 Q214.9063,178.2344 213.5781,176.5938 Q212.2656,174.9375 212.2656,171.8125 Q212.2656,168.6875 213.5781,167.0313 Q214.9063,165.375 217.4063,165.375 Q218.1094,165.375 218.75,165.5313 Q219.4063,165.6875 219.9688,165.9844 L219.9688,168.7031 Q219.3438,168.125 218.75,167.8594 Q218.1563,167.5781 217.5313,167.5781 Q216.1875,167.5781 215.5,168.6563 Q214.8125,169.7188 214.8125,171.8125 Q214.8125,173.9063 215.5,174.9844 Q216.1875,176.0469 217.5313,176.0469 Q218.1563,176.0469 218.75,175.7813 Q219.3438,175.5 219.9688,174.9219 L219.9688,177.6406 Z " fill="#000000"/><text fill="#000000" font-family="sans-serif" font-size="14" lengthAdjust="spacing" textLength="195.2822" x="231" y="176.8467">InvalidQueryStateException</text></g><!--class KeyNotFound__class--><g id="elem_KeyNotFound__class"><rect codeLine="31" fill="#F1F1F1" height="32" id="KeyNotFound__class" rx="2.5" ry="2.5" style="stroke:#181818;stroke-width:0.5;" width="125.8574" x="252.5" y="306"/><ellipse cx="267.5" cy="322" fill="#ADD1B2" rx="11" ry="11" style="stroke:#181818;stroke-width:1;"/><path d="M270.4688,327.6406 Q269.8906,327.9375 269.25,328.0781 Q268.6094,328.2344 267.9063,328.2344 Q265.4063,328.2344 264.0781,326.5938 Q262.7656,324.9375 262.7656,321.8125 Q262.7656,318.6875 264.0781,317.0313 Q265.4063,315.375 267.9063,315.375 Q268.6094,315.375 269.25,315.5313 Q269.9063,315.6875 270.4688,315.9844 L270.4688,318.7031 Q269.8438,318.125 269.25,317.8594 Q268.6563,317.5781 268.0313,317.5781 Q266.6875,317.5781 266,318.6563 Q265.3125,319.7188 265.3125,321.8125 Q265.3125,323.9063 266,324.9844 Q266.6875,326.0469 268.0313,326.0469 Q268.6563,326.0469 269.25,325.7813 Q269.8438,325.5 270.4688,324.9219 L270.4688,327.6406 Z " fill="#000000"/><text fill="#000000" font-family="sans-serif" font-size="14" lengthAdjust="spacing" textLength="93.8574" x="281.5" y="326.8467">KeyNotFound</text></g><!--class Result__class--><g id="elem_Result__class"><rect codeLine="35" fill="#F1F1F1" height="32" id="Result__class" rx="2.5" ry="2.5" style="stroke:#181818;stroke-width:0.5;" width="75.8867" x="277.5" y="256"/><ellipse cx="292.5" cy="272" fill="#ADD1B2" rx="11" ry="11" style="stroke:#181818;stroke-width:1;"/><path d="M295.4688,277.6406 Q294.8906,277.9375 294.25,278.0781 Q293.6094,278.2344 292.9063,278.2344 Q290.4063,278.2344 289.0781,276.5938 Q287.7656,274.9375 287.7656,271.8125 Q287.7656,268.6875 289.0781,267.0313 Q290.4063,265.375 292.9063,265.375 Q293.6094,265.375 294.25,265.5313 Q294.9063,265.6875 295.4688,265.9844 L295.4688,268.7031 Q294.8438,268.125 294.25,267.8594 Q293.6563,267.5781 293.0313,267.5781 Q291.6875,267.5781 291,268.6563 Q290.3125,269.7188 290.3125,271.8125 Q290.3125,273.9063 291,274.9844 Q291.6875,276.0469 293.0313,276.0469 Q293.6563,276.0469 294.25,275.7813 Q294.8438,275.5 295.4688,274.9219 L295.4688,277.6406 Z " fill="#000000"/><text fill="#000000" font-family="sans-serif" font-size="14" lengthAdjust="spacing" textLength="43.8867" x="306.5" y="276.8467">Result</text></g><!--class Closable__interface--><g id="elem_Closable__interface"><rect codeLine="39" fill="#F1F1F1" height="32" id="Closable__interface" rx="2.5" ry="2.5" style="stroke:#181818;stroke-width:0.5;" width="91.4932" x="270" y="206"/><ellipse cx="285" cy="222" fill="#B4A7E5" rx="11" ry="11" style="stroke:#181818;stroke-width:1;"/><path d="M280.9219,217.7656 L280.9219,215.6094 L288.3125,215.6094 L288.3125,217.7656 L285.8438,217.7656 L285.8438,225.8438 L288.3125,225.8438 L288.3125,228 L280.9219,228 L280.9219,225.8438 L283.3906,225.8438 L283.3906,217.7656 L280.9219,217.7656 Z " fill="#000000"/><text fill="#000000" font-family="sans-serif" font-size="14" font-style="italic" lengthAdjust="spacing" textLength="59.4932" x="299" y="226.8467">Closable</text></g><!--class DestroyHook__interface--><g id="elem_DestroyHook__interface"><rect codeLine="43" fill="#F1F1F1" height="32" id="DestroyHook__interface" rx="2.5" ry="2.5" style="stroke:#181818;stroke-width:0.5;" width="122.5488" x="476.5" y="306"/><ellipse cx="491.5" cy="322" fill="#B4A7E5" rx="11" ry="11" style="stroke:#181818;stroke-width:1;"/><path d="M487.4219,317.7656 L487.4219,315.6094 L494.8125,315.6094 L494.8125,317.7656 L492.3438,317.7656 L492.3438,325.8438 L494.8125,325.8438 L494.8125,328 L487.4219,328 L487.4219,325.8438 L489.8906,325.8438 L489.8906,317.7656 L487.4219,317.7656 Z " fill="#000000"/><text fill="#000000" font-family="sans-serif" font-size="14" font-style="italic" lengthAdjust="spacing" textLength="90.5488" x="505.5" y="326.8467">DestroyHook</text></g><!--class InitHook__interface--><g id="elem_InitHook__interface"><rect codeLine="47" fill="#F1F1F1" height="32" id="InitHook__interface" rx="2.5" ry="2.5" style="stroke:#181818;stroke-width:0.5;" width="90.1465" x="493" y="256"/><ellipse cx="508" cy="272" fill="#B4A7E5" rx="11" ry="11" style="stroke:#181818;stroke-width:1;"/><path d="M503.9219,267.7656 L503.9219,265.6094 L511.3125,265.6094 L511.3125,267.7656 L508.8438,267.7656 L508.8438,275.8438 L511.3125,275.8438 L511.3125,278 L503.9219,278 L503.9219,275.8438 L506.3906,275.8438 L506.3906,267.7656 L503.9219,267.7656 Z " fill="#000000"/><text fill="#000000" font-family="sans-serif" font-size="14" font-style="italic" lengthAdjust="spacing" textLength="58.1465" x="522" y="276.8467">InitHook</text></g><!--class Loadable__interface--><g id="elem_Loadable__interface"><rect codeLine="51" fill="#F1F1F1" height="32" id="Loadable__interface" rx="2.5" ry="2.5" style="stroke:#181818;stroke-width:0.5;" width="95.7998" x="490" y="206"/><ellipse cx="505" cy="222" fill="#B4A7E5" rx="11" ry="11" style="stroke:#181818;stroke-width:1;"/><path d="M500.9219,217.7656 L500.9219,215.6094 L508.3125,215.6094 L508.3125,217.7656 L505.8438,217.7656 L505.8438,225.8438 L508.3125,225.8438 L508.3125,228 L500.9219,228 L500.9219,225.8438 L503.3906,225.8438 L503.3906,217.7656 L500.9219,217.7656 Z " fill="#000000"/><text fill="#000000" font-family="sans-serif" font-size="14" font-style="italic" lengthAdjust="spacing" textLength="63.7998" x="519" y="226.8467">Loadable</text></g><!--class Persistable__interface--><g id="elem_Persistable__interface"><rect codeLine="55" fill="#F1F1F1" height="32" id="Persistable__interface" rx="2.5" ry="2.5" style="stroke:#181818;stroke-width:0.5;" width="108.7471" x="647" y="306"/><ellipse cx="662" cy="322" fill="#B4A7E5" rx="11" ry="11" style="stroke:#181818;stroke-width:1;"/><path d="M657.9219,317.7656 L657.9219,315.6094 L665.3125,315.6094 L665.3125,317.7656 L662.8438,317.7656 L662.8438,325.8438 L665.3125,325.8438 L665.3125,328 L657.9219,328 L657.9219,325.8438 L660.3906,325.8438 L660.3906,317.7656 L657.9219,317.7656 Z " fill="#000000"/><text fill="#000000" font-family="sans-serif" font-size="14" font-style="italic" lengthAdjust="spacing" textLength="76.7471" x="676" y="326.8467">Persistable</text></g><polygon fill="transparent" points="386.5705,122,404.5705,128,404.5705,116,386.5705,122" style="stroke:#516F42;stroke-width:1;"/><path d="M404.5705,122 C429.5393,122 439.6932,122 464.8346,122 " fill="transparent" style="stroke:#516F42;stroke-width:1;stroke-dasharray:7.0,7.0;"/><polygon fill="transparent" points="361.6535,44.0682,375.6653,56.8616,380.539,45.8959,361.6535,44.0682" style="stroke:#516F42;stroke-width:1;"/><path d="M378.1022,51.3787 C419.177,69.6342 462.5843,88.9264 500.6526,105.8456 " fill="transparent" style="stroke:#516F42;stroke-width:1;stroke-dasharray:7.0,7.0;"/><polygon fill="transparent" points="166.2491,172,184.2491,178,184.2491,166,166.2491,172" style="stroke:#516F42;stroke-width:1;"/><path d="M184.2491,172 C195.7902,172 189.8548,172 201.902,172 " fill="transparent" style="stroke:#516F42;stroke-width:1;"/><!--SRC=[hLHDRzim3BthLt3PTPSDsqv5WIxTi6B3q3LN0m5ZqxOGIJGafgrHzBzFTlpLjCQoBZw9vDFZuuVrfl9OM0I3DUy4WYL1Xme0mbQx2ZrQkF2UxvPisCFRJ-y_vny_F8rZAlfMI_s5VKR-622csyBppcKTE6-_by6N6Ysxx6Zo7dzCZb1YndVQ5P2Z2QJKV6YC6Er8weg0lPIiIfqHaAsa1ajsGpueGxc0C7XTb0APzXIriLE111nQ2XMcjAA6JgAq955gSCDrMR51doIh6CE2uA7H3De9-Rm1BBh0agFhNXQ00PwwrkiHtLr_L8zgGh6CZH7S66fl3zPwdHeC0SxE8DAGTsZW_FmXtlshFjm4yN4607kAnKNdw61jeWDVdwufprQ6B3a9iHs7AOR3y_hU9SapzMF5dPIR2D2MljwdL3M3QBKSEl-ZzhxaAtUBHcU_T-JhbQ0SP9mFZureKhkiQSASlabvHmlxGVKlbc_Dtz0gcTYJ6Ro2-8R2pknNS7zy7TrqCms7SJ4xOsQX_uNtakBgSVsTUTjIJ-mJi5yvBGDrRvo0zoTZDdIZDqx0UnsVAHt65s1Ypx3_0G00]--></g></svg>