<svg xmlns="http://www.w3.org/2000/svg" xmlns:xlink="http://www.w3.org/1999/xlink" contentStyleType="text/css" data-diagram-type="CLASS" height="411px" preserveAspectRatio="none" style="width:634px;height:411px;background:#FFFFFF;" version="1.1" viewBox="0 0 634 411" width="634px" zoomAndPan="magnify"><defs/><g><!--cluster Phpolar--><g id="cluster_Phpolar"><path d="M188.5,52 L250.5176,52 A3.75,3.75 0 0 1 253.0176,54.5 L260.0176,74.2969 L624.5,74.2969 A2.5,2.5 0 0 1 627,76.7969 L627,401.5 A2.5,2.5 0 0 1 624.5,404 L188.5,404 A2.5,2.5 0 0 1 186,401.5 L186,54.5 A2.5,2.5 0 0 1 188.5,52 " fill="transparent" style="stroke:#000000;stroke-width:1.5;"/><line style="stroke:#000000;stroke-width:1.5;" x1="186" x2="260.0176" y1="74.2969" y2="74.2969"/><text fill="#000000" font-family="sans-serif" font-size="14" font-weight="bold" lengthAdjust="spacing" textLength="61.0176" x="190" y="66.9951">Phpolar</text></g><!--cluster Storage--><g id="cluster_Storage"><path d="M196.5,79 L259.7617,79 A3.75,3.75 0 0 1 262.2617,81.5 L269.2617,101.2969 L616.5,101.2969 A2.5,2.5 0 0 1 619,103.7969 L619,393.5 A2.5,2.5 0 0 1 616.5,396 L196.5,396 A2.5,2.5 0 0 1 194,393.5 L194,81.5 A2.5,2.5 0 0 1 196.5,79 " fill="transparent" style="stroke:#000000;stroke-width:1.5;"/><line style="stroke:#000000;stroke-width:1.5;" x1="194" x2="269.2617" y1="101.2969" y2="101.2969"/><text fill="#000000" font-family="sans-serif" font-size="14" font-weight="bold" lengthAdjust="spacing" textLength="62.2617" x="198" y="93.9951">Storage</text></g><!--class Countable__class--><g id="elem_Countable__class"><rect codeLine="18" fill="#F1F1F1" height="40.2656" id="Countable__class" rx="2.5" ry="2.5" style="stroke:#181818;stroke-width:0.5;" width="103.5449" x="263.5" y="4"/><ellipse cx="278.5" cy="24.1328" fill="#B4A7E5" rx="11" ry="11" style="stroke:#181818;stroke-width:1;"/><path d="M274.4219,19.8984 L274.4219,17.7422 L281.8125,17.7422 L281.8125,19.8984 L279.3438,19.8984 L279.3438,27.9766 L281.8125,27.9766 L281.8125,30.1328 L274.4219,30.1328 L274.4219,27.9766 L276.8906,27.9766 L276.8906,19.8984 L274.4219,19.8984 Z " fill="#000000"/><text fill="#000000" font-family="sans-serif" font-size="12" font-style="italic" lengthAdjust="spacing" textLength="64.4824" x="296.0313" y="20.1387">&#171;external&#187;</text><text fill="#000000" font-family="sans-serif" font-size="14" font-style="italic" lengthAdjust="spacing" textLength="71.5449" x="292.5" y="35.9639">Countable</text></g><!--class RuntimeException__class--><g id="elem_RuntimeException__class"><rect codeLine="24" fill="#F1F1F1" height="40.2656" id="RuntimeException__class" rx="2.5" ry="2.5" style="stroke:#181818;stroke-width:0.5;" width="160.249" x="6" y="152"/><ellipse cx="21" cy="172.1328" fill="#ADD1B2" rx="11" ry="11" style="stroke:#181818;stroke-width:1;"/><path d="M23.9688,177.7734 Q23.3906,178.0703 22.75,178.2109 Q22.1094,178.3672 21.4063,178.3672 Q18.9063,178.3672 17.5781,176.7266 Q16.2656,175.0703 16.2656,171.9453 Q16.2656,168.8203 17.5781,167.1641 Q18.9063,165.5078 21.4063,165.5078 Q22.1094,165.5078 22.75,165.6641 Q23.4063,165.8203 23.9688,166.1172 L23.9688,168.8359 Q23.3438,168.2578 22.75,167.9922 Q22.1563,167.7109 21.5313,167.7109 Q20.1875,167.7109 19.5,168.7891 Q18.8125,169.8516 18.8125,171.9453 Q18.8125,174.0391 19.5,175.1172 Q20.1875,176.1797 21.5313,176.1797 Q22.1563,176.1797 22.75,175.9141 Q23.3438,175.6328 23.9688,175.0547 L23.9688,177.7734 Z " fill="#000000"/><text fill="#000000" font-family="sans-serif" font-size="12" font-style="italic" lengthAdjust="spacing" textLength="64.4824" x="66.8833" y="168.1387">&#171;external&#187;</text><text fill="#000000" font-family="sans-serif" font-size="14" lengthAdjust="spacing" textLength="128.249" x="35" y="183.9639">RuntimeException</text></g><!--class StorageContext__interface--><g id="elem_StorageContext__interface"><rect codeLine="15" fill="#F1F1F1" height="32" id="StorageContext__interface" rx="2.5" ry="2.5" style="stroke:#181818;stroke-width:0.5;" width="141.8672" x="244.5" y="106"/><ellipse cx="259.5" cy="122" fill="#B4A7E5" rx="11" ry="11" style="stroke:#181818;stroke-width:1;"/><path d="M255.4219,117.7656 L255.4219,115.6094 L262.8125,115.6094 L262.8125,117.7656 L260.3438,117.7656 L260.3438,125.8438 L262.8125,125.8438 L262.8125,128 L255.4219,128 L255.4219,125.8438 L257.8906,125.8438 L257.8906,117.7656 L255.4219,117.7656 Z " fill="#000000"/><text fill="#000000" font-family="sans-serif" font-size="14" font-style="italic" lengthAdjust="spacing" textLength="109.8672" x="273.5" y="126.8467">StorageContext</text></g><!--class AbstractStorage__class--><g id="elem_AbstractStorage__class"><rect codeLine="21" fill="#F1F1F1" height="32" id="AbstractStorage__class" rx="2.5" ry="2.5" style="stroke:#181818;stroke-width:0.5;" width="145.5449" x="465" y="106"/><ellipse cx="480" cy="122" fill="#A9DCDF" rx="11" ry="11" style="stroke:#181818;stroke-width:1;"/><path d="M480.1094,117.3438 L478.9531,122.4219 L481.2813,122.4219 L480.1094,117.3438 Z M478.625,115.1094 L481.6094,115.1094 L484.9688,127.5 L482.5156,127.5 L481.75,124.4375 L478.4688,124.4375 L477.7188,127.5 L475.2813,127.5 L478.625,115.1094 Z " fill="#000000"/><text fill="#000000" font-family="sans-serif" font-size="14" font-style="italic" lengthAdjust="spacing" textLength="113.5449" x="494" y="126.8467">AbstractStorage</text></g><!--class InvalidQueryStateException__class--><g id="elem_InvalidQueryStateException__class"><rect codeLine="27" fill="#F1F1F1" height="32" id="InvalidQueryStateException__class" rx="2.5" ry="2.5" style="stroke:#181818;stroke-width:0.5;" width="227.2822" x="202" y="156"/><ellipse cx="217" cy="172" fill="#ADD1B2" rx="11" ry="11" style="stroke:#181818;stroke-width:1;"/><path d="M219.9688,177.6406 Q219.3906,177.9375 218.75,178.0781 Q218.1094,178.2344 217.4063,178.2344 Q214.9063,178.2344 213.5781,176.5938 Q212.2656,174.9375 212.2656,171.8125 Q212.2656,168.6875 213.5781,167.0313 Q214.9063,165.375 217.4063,165.375 Q218.1094,165.375 218.75,165.5313 Q219.4063,165.6875 219.9688,165.9844 L219.9688,168.7031 Q219.3438,168.125 218.75,167.8594 Q218.1563,167.5781 217.5313,167.5781 Q216.1875,167.5781 215.5,168.6563 Q214.8125,169.7188 214.8125,171.8125 Q214.8125,173.9063 215.5,174.9844 Q216.1875,176.0469 217.5313,176.0469 Q218.1563,176.0469 218.75,175.7813 Q219.3438,175.5 219.9688,174.9219 L219.9688,177.6406 Z " fill="#000000"/><text fill="#000000" font-family="sans-serif" font-size="14" lengthAdjust="spacing" textLength="195.2822" x="231" y="176.8467">InvalidQueryStateException</text></g><!--class KeyNotFound__class--><g id="elem_KeyNotFound__class"><rect codeLine="31" fill="#F1F1F1" height="32" id="KeyNotFound__class" rx="2.5" ry="2.5" style="stroke:#181818;stroke-width:0.5;" width="125.8574" x="252.5" y="306"/><ellipse cx="267.5" cy="322" fill="#ADD1B2" rx="11" ry="11" style="stroke:#181818;stroke-width:1;"/><path d="M270.4688,327.6406 Q269.8906,327.9375 269.25,328.0781 Q268.6094,328.2344 267.9063,328.2344 Q265.4063,328.2344 264.0781,326.5938 Q262.7656,324.9375 262.7656,321.8125 Q262.7656,318.6875 264.0781,317.0313 Q265.4063,315.375 267.9063,315.375 Q268.6094,315.375 269.25,315.5313 Q269.9063,315.6875 270.4688,315.9844 L270.4688,318.7031 Q269.8438,318.125 269.25,317.8594 Q268.6563,317.5781 268.0313,317.5781 Q266.6875,317.5781 266,318.6563 Q265.3125,319.7188 265.3125,321.8125 Q265.3125,323.9063 266,324.9844 Q266.6875,326.0469 268.0313,326.0469 Q268.6563,326.0469 269.25,325.7813 Q269.8438,325.5 270.4688,324.9219 L270.4688,327.6406 Z " fill="#000000"/><text fill="#000000" font-family="sans-serif" font-size="14" lengthAdjust="spacing" textLength="93.8574" x="281.5" y="326.8467">KeyNotFound</text></g><!--class Queryable__interface--><g id="elem_Queryable__interface"><rect codeLine="35" fill="#F1F1F1" height="32" id="Queryable__interface" rx="2.5" ry="2.5" style="stroke:#181818;stroke-width:0.5;" width="104.5156" x="263" y="356"/><ellipse cx="278" cy="372" fill="#B4A7E5" rx="11" ry="11" style="stroke:#181818;stroke-width:1;"/><path d="M273.9219,367.7656 L273.9219,365.6094 L281.3125,365.6094 L281.3125,367.7656 L278.8438,367.7656 L278.8438,375.8438 L281.3125,375.8438 L281.3125,378 L273.9219,378 L273.9219,375.8438 L276.3906,375.8438 L276.3906,367.7656 L273.9219,367.7656 Z " fill="#000000"/><text fill="#000000" font-family="sans-serif" font-size="14" font-style="italic" lengthAdjust="spacing" textLength="72.5156" x="292" y="376.8467">Queryable</text></g><!--class NotFound__class--><g id="elem_NotFound__class"><rect codeLine="39" fill="#F1F1F1" height="32" id="NotFound__class" rx="2.5" ry="2.5" style="stroke:#181818;stroke-width:0.5;" width="99.7783" x="488" y="356"/><ellipse cx="503" cy="372" fill="#ADD1B2" rx="11" ry="11" style="stroke:#181818;stroke-width:1;"/><path d="M505.9688,377.6406 Q505.3906,377.9375 504.75,378.0781 Q504.1094,378.2344 503.4063,378.2344 Q500.9063,378.2344 499.5781,376.5938 Q498.2656,374.9375 498.2656,371.8125 Q498.2656,368.6875 499.5781,367.0313 Q500.9063,365.375 503.4063,365.375 Q504.1094,365.375 504.75,365.5313 Q505.4063,365.6875 505.9688,365.9844 L505.9688,368.7031 Q505.3438,368.125 504.75,367.8594 Q504.1563,367.5781 503.5313,367.5781 Q502.1875,367.5781 501.5,368.6563 Q500.8125,369.7188 500.8125,371.8125 Q500.8125,373.9063 501.5,374.9844 Q502.1875,376.0469 503.5313,376.0469 Q504.1563,376.0469 504.75,375.7813 Q505.3438,375.5 505.9688,374.9219 L505.9688,377.6406 Z " fill="#000000"/><text fill="#000000" font-family="sans-serif" font-size="14" lengthAdjust="spacing" textLength="67.7783" x="517" y="376.8467">NotFound</text></g><!--class Result__class--><g id="elem_Result__class"><rect codeLine="43" fill="#F1F1F1" height="32" id="Result__class" rx="2.5" ry="2.5" style="stroke:#181818;stroke-width:0.5;" width="75.8867" x="500" y="306"/><ellipse cx="515" cy="322" fill="#ADD1B2" rx="11" ry="11" style="stroke:#181818;stroke-width:1;"/><path d="M517.9688,327.6406 Q517.3906,327.9375 516.75,328.0781 Q516.1094,328.2344 515.4063,328.2344 Q512.9063,328.2344 511.5781,326.5938 Q510.2656,324.9375 510.2656,321.8125 Q510.2656,318.6875 511.5781,317.0313 Q512.9063,315.375 515.4063,315.375 Q516.1094,315.375 516.75,315.5313 Q517.4063,315.6875 517.9688,315.9844 L517.9688,318.7031 Q517.3438,318.125 516.75,317.8594 Q516.1563,317.5781 515.5313,317.5781 Q514.1875,317.5781 513.5,318.6563 Q512.8125,319.7188 512.8125,321.8125 Q512.8125,323.9063 513.5,324.9844 Q514.1875,326.0469 515.5313,326.0469 Q516.1563,326.0469 516.75,325.7813 Q517.3438,325.5 517.9688,324.9219 L517.9688,327.6406 Z " fill="#000000"/><text fill="#000000" font-family="sans-serif" font-size="14" lengthAdjust="spacing" textLength="43.8867" x="529" y="326.8467">Result</text></g><!--class Closable__interface--><g id="elem_Closable__interface"><rect codeLine="47" fill="#F1F1F1" height="32" id="Closable__interface" rx="2.5" ry="2.5" style="stroke:#181818;stroke-width:0.5;" width="91.4932" x="270" y="256"/><ellipse cx="285" cy="272" fill="#B4A7E5" rx="11" ry="11" style="stroke:#181818;stroke-width:1;"/><path d="M280.9219,267.7656 L280.9219,265.6094 L288.3125,265.6094 L288.3125,267.7656 L285.8438,267.7656 L285.8438,275.8438 L288.3125,275.8438 L288.3125,278 L280.9219,278 L280.9219,275.8438 L283.3906,275.8438 L283.3906,267.7656 L280.9219,267.7656 Z " fill="#000000"/><text fill="#000000" font-family="sans-serif" font-size="14" font-style="italic" lengthAdjust="spacing" textLength="59.4932" x="299" y="276.8467">Closable</text></g><!--class DestroyHook__interface--><g id="elem_DestroyHook__interface"><rect codeLine="51" fill="#F1F1F1" height="32" id="DestroyHook__interface" rx="2.5" ry="2.5" style="stroke:#181818;stroke-width:0.5;" width="122.5488" x="254" y="206"/><ellipse cx="269" cy="222" fill="#B4A7E5" rx="11" ry="11" style="stroke:#181818;stroke-width:1;"/><path d="M264.9219,217.7656 L264.9219,215.6094 L272.3125,215.6094 L272.3125,217.7656 L269.8438,217.7656 L269.8438,225.8438 L272.3125,225.8438 L272.3125,228 L264.9219,228 L264.9219,225.8438 L267.3906,225.8438 L267.3906,217.7656 L264.9219,217.7656 Z " fill="#000000"/><text fill="#000000" font-family="sans-serif" font-size="14" font-style="italic" lengthAdjust="spacing" textLength="90.5488" x="283" y="226.8467">DestroyHook</text></g><!--class InitHook__interface--><g id="elem_InitHook__interface"><rect codeLine="55" fill="#F1F1F1" height="32" id="InitHook__interface" rx="2.5" ry="2.5" style="stroke:#181818;stroke-width:0.5;" width="90.1465" x="493" y="256"/><ellipse cx="508" cy="272" fill="#B4A7E5" rx="11" ry="11" style="stroke:#181818;stroke-width:1;"/><path d="M503.9219,267.7656 L503.9219,265.6094 L511.3125,265.6094 L511.3125,267.7656 L508.8438,267.7656 L508.8438,275.8438 L511.3125,275.8438 L511.3125,278 L503.9219,278 L503.9219,275.8438 L506.3906,275.8438 L506.3906,267.7656 L503.9219,267.7656 Z " fill="#000000"/><text fill="#000000" font-family="sans-serif" font-size="14" font-style="italic" lengthAdjust="spacing" textLength="58.1465" x="522" y="276.8467">InitHook</text></g><!--class Loadable__interface--><g id="elem_Loadable__interface"><rect codeLine="59" fill="#F1F1F1" height="32" id="Loadable__interface" rx="2.5" ry="2.5" style="stroke:#181818;stroke-width:0.5;" width="95.7998" x="490" y="206"/><ellipse cx="505" cy="222" fill="#B4A7E5" rx="11" ry="11" style="stroke:#181818;stroke-width:1;"/><path d="M500.9219,217.7656 L500.9219,215.6094 L508.3125,215.6094 L508.3125,217.7656 L505.8438,217.7656 L505.8438,225.8438 L508.3125,225.8438 L508.3125,228 L500.9219,228 L500.9219,225.8438 L503.3906,225.8438 L503.3906,217.7656 L500.9219,217.7656 Z " fill="#000000"/><text fill="#000000" font-family="sans-serif" font-size="14" font-style="italic" lengthAdjust="spacing" textLength="63.7998" x="519" y="226.8467">Loadable</text></g><!--class Persistable__interface--><g id="elem_Persistable__interface"><rect codeLine="63" fill="#F1F1F1" height="32" id="Persistable__interface" rx="2.5" ry="2.5" style="stroke:#181818;stroke-width:0.5;" width="108.7471" x="483.5" y="156"/><ellipse cx="498.5" cy="172" fill="#B4A7E5" rx="11" ry="11" style="stroke:#181818;stroke-width:1;"/><path d="M494.4219,167.7656 L494.4219,165.6094 L501.8125,165.6094 L501.8125,167.7656 L499.3438,167.7656 L499.3438,175.8438 L501.8125,175.8438 L501.8125,178 L494.4219,178 L494.4219,175.8438 L496.8906,175.8438 L496.8906,167.7656 L494.4219,167.7656 Z " fill="#000000"/><text fill="#000000" font-family="sans-serif" font-size="14" font-style="italic" lengthAdjust="spacing" textLength="76.7471" x="512.5" y="176.8467">Persistable</text></g><polygon fill="transparent" points="386.5705,122,404.5705,128,404.5705,116,386.5705,122" style="stroke:#516F42;stroke-width:1;"/><path d="M404.5705,122 C429.5393,122 439.6932,122 464.8346,122 " fill="transparent" style="stroke:#516F42;stroke-width:1;stroke-dasharray:7.0,7.0;"/><polygon fill="transparent" points="361.6535,44.0682,375.6653,56.8616,380.539,45.8959,361.6535,44.0682" style="stroke:#516F42;stroke-width:1;"/><path d="M378.1022,51.3787 C419.177,69.6342 462.5843,88.9264 500.6526,105.8456 " fill="transparent" style="stroke:#516F42;stroke-width:1;stroke-dasharray:7.0,7.0;"/><polygon fill="transparent" points="166.2491,172,184.2491,178,184.2491,166,166.2491,172" style="stroke:#516F42;stroke-width:1;"/><path d="M184.2491,172 C195.7902,172 189.8548,172 201.902,172 " fill="transparent" style="stroke:#516F42;stroke-width:1;"/><polygon fill="transparent" points="368.1975,372,386.1975,378,386.1975,366,368.1975,372" style="stroke:#516F42;stroke-width:1;"/><path d="M386.1975,372 C422.3482,372 452.3311,372 487.897,372 " fill="transparent" style="stroke:#516F42;stroke-width:1;stroke-dasharray:7.0,7.0;"/><polygon fill="transparent" points="368.0465,360.6452,386.9184,362.6077,384.3215,350.892,368.0465,360.6452" style="stroke:#516F42;stroke-width:1;"/><path d="M385.62,356.7499 C404.769,352.5053 409.0978,351.5148 429,347 C452.4612,341.6779 478.7602,335.5927 499.5323,330.7585 " fill="transparent" style="stroke:#516F42;stroke-width:1;stroke-dasharray:7.0,7.0;"/><!--SRC=[lLHDRzim3BtxLt3PTPSDsqv5WIxji6B3q3LN0m4JqxOGIJGafgrHzBzFTloLD4QzDfXFVYJr-4YHUbSup0o2nfAt0jwGeCK80Fn6sG8T6hXmZk_dhDd1-oyVlwQVF-txSItgJadvZLr2RaeWhZUPuwrDck2q_eu7NoeqR9F9v6tyb1m-nuJlbSqWHUqfYiPTlKShIr8M1EmavoXN2G6PGaemP5RaVAGf5H06fx9S856EWZQsaIS1YuPyWMjQK4KdGLeSHr5dXfkyO8qkZXV1Xnd1OwKPb1LoQHKmQnnp3gO7cG5ws3SjbtrqS_mfUee65FFG6C6LflfqXvRBjKRluUmC0WqvYnhEpn_3sHVruSgB2tS0iAEONJI69gnET61hqrNbcKAJ8Ii-jECmHVVplBuFSVnCVLzn8-Ks12X3LmzhAggBgBKS6jzGUrlojRr3hP8_MtBbGb0ECewx-qPKgMrIDM5Ctw2yoS9-KlcRvNkr3RMI0HxSmJyG3qQfBgSRfGwDpE1aoNjwZuXzOM2EwdY5Z5loMxtRiTtl_vCmN5VDlj_M1hosmmFUImhxoEKFvarDFS0dOB-sIZhg5fo0znTZqdMZ1IVWlGblj_BzipZ08-n_0G00]--></g></svg>